<svg width="485" height="294" viewBox="0 0 485 294" fill="none" xmlns="http://www.w3.org/2000/svg">
<g clip-path="url(#clip0_3497_100602)">
<path d="M484.777 294H0V292.772H485L484.777 294Z" fill="#3F3D56"/>
<path d="M423.306 98.7224L411.038 122.945L374.358 139.577C370.441 146.18 357.994 146.685 357.089 142.416C356.073 137.626 372.204 129.916 372.204 129.916L402.884 109.218L405.568 91.4004L423.306 98.7224Z" fill="#A0616A"/>
<path d="M421.857 261.277L424.119 279.329L410.998 280.232L409.641 261.277H421.857Z" fill="#A0616A"/>
<path d="M420.05 276.622C421.223 275.384 422.305 274.064 423.287 272.672C425.168 270.077 426.837 283.391 426.837 283.391C426.837 283.391 428.646 288.807 428.194 291.514C427.741 294.222 417.335 294.222 415.525 293.771C413.715 293.319 404.666 293.771 404.666 293.771H391.092C379.328 288.355 391.092 284.745 391.092 284.745C394.711 284.294 406.928 273.011 406.928 273.011L409.643 268.047C411.453 267.596 413.263 274.365 413.263 274.365L420.05 276.622Z" fill="#2F2E41"/>
<path d="M455.795 261.503L458.057 279.555L444.936 280.458L443.578 261.503H455.795Z" fill="#A0616A"/>
<path d="M453.983 276.847C455.156 275.61 456.238 274.29 457.221 272.898C459.102 270.302 460.77 283.617 460.77 283.617C460.77 283.617 462.58 288.581 462.128 291.289C461.675 293.996 451.268 293.996 449.459 293.545C447.649 293.094 438.599 293.996 438.599 293.996H425.025C413.261 288.581 425.025 284.97 425.025 284.97C428.645 284.519 440.862 273.237 440.862 273.237L443.576 268.273C445.386 267.821 447.196 274.591 447.196 274.591L453.983 276.847Z" fill="#2F2E41"/>
<path d="M440.863 145.069C442.673 147.326 441.768 154.998 441.768 154.998C441.768 154.998 444.935 179.819 443.578 182.076C442.22 184.332 444.483 186.137 445.84 189.296C447.198 192.455 448.555 200.127 448.555 200.127C456.247 206.445 455.794 235.328 455.794 235.328L458.509 261.052C457.604 263.76 444.935 264.211 443.125 263.76C441.315 263.309 435.886 222.692 435.886 222.692L423.669 199.676C423.669 199.676 424.574 261.052 424.574 263.76C424.574 266.468 412.358 265.114 409.643 265.114C406.928 265.114 406.928 219.984 406.928 219.984L404.213 208.251L389.734 154.546V148.228L391.997 145.069C391.997 145.069 439.053 142.813 440.863 145.069Z" fill="#2F2E41"/>
<path d="M420.956 42.6258C428.703 42.6258 434.983 36.3622 434.983 28.6357C434.983 20.9091 428.703 14.6455 420.956 14.6455C413.21 14.6455 406.93 20.9091 406.93 28.6357C406.93 36.3622 413.21 42.6258 420.956 42.6258Z" fill="#A0616A"/>
<path d="M413.939 35.1797C416.782 41.4944 415.098 50.3145 409.414 60.0009L432.49 49.1699L428.87 46.0108L429.775 36.9849L413.939 35.1797Z" fill="#A0616A"/>
<path d="M413.942 49.6202C410.92 51.412 409.112 54.7042 408.074 58.0544C406.153 64.2568 404.997 70.6695 404.631 77.1509L403.535 96.5549L389.961 148.003C401.725 157.931 408.512 155.675 424.348 147.551C440.185 139.428 441.994 150.259 441.994 150.259C441.994 150.259 443.352 149.808 441.994 148.454C440.637 147.1 441.994 148.454 443.352 147.1C444.709 145.746 443.352 147.1 442.899 145.746C442.447 144.392 442.899 145.295 443.352 144.843C443.804 144.392 441.542 140.33 441.542 140.33L445.162 106.483L449.686 58.646C444.257 51.8766 428.873 46.0098 428.873 46.0098L414.847 55.9382C410.322 57.7434 413.942 50.5227 413.942 50.5227V49.6202Z" fill="#1976AD"/>
<path d="M457.15 87.3037L458.96 114.381L435.884 147.326C435.884 154.998 431.812 156.803 431.812 156.803C430.27 154.348 428.909 151.784 427.74 149.131C425.478 144.167 429.097 140.105 429.097 140.105L444.934 106.709L438.147 90.0115L457.15 87.3037Z" fill="#A0616A"/>
<path d="M449.463 58.8722C457.154 61.58 458.512 90.9142 458.512 90.9142C449.463 85.9499 438.603 94.0732 438.603 94.0732C438.603 94.0732 436.341 86.4012 433.626 76.4727C432.807 73.68 432.709 70.7258 433.341 67.8851C433.974 65.0445 435.318 62.4097 437.246 60.2261C437.246 60.2261 441.771 56.1644 449.463 58.8722Z" fill="#1976AD"/>
<path d="M433.848 32.9225C432.062 31.4977 429.626 34.0876 429.626 34.0876L428.198 21.2643C428.198 21.2643 419.27 22.333 413.556 20.9081C407.842 19.4833 406.949 26.0731 406.949 26.0731C406.654 23.4119 406.595 20.7301 406.77 18.0585C407.127 14.8527 411.77 11.6469 419.984 9.50965C428.198 7.37245 432.483 16.6337 432.483 16.6337C438.197 19.4833 435.634 34.3473 433.848 32.9225Z" fill="#2F2E41"/>
<path d="M22.7969 221.23C24.339 227.336 37.4887 241.068 51.0572 253.962C30.1334 202.413 42.0566 145.998 42.0566 145.998C38.1715 168.155 91.4176 279.655 91.4176 279.655L79.29 286.788L75.1932 292.538C34.1241 273.725 22.7969 221.23 22.7969 221.23Z" fill="#E6E6E6"/>
<path d="M376.647 106.924H205.117V140.702H376.647V106.924Z" fill="#E6E6E6"/>
<path d="M376.647 53.5498H205.117V87.3283H376.647V53.5498Z" fill="#E6E6E6"/>
<path d="M376.647 0H205.117V33.7785H376.647V0Z" fill="#E6E6E6"/>
<path d="M208.773 30.1313H372.99V3.64746H208.773V30.1313Z" fill="white"/>
<path d="M208.773 83.7983H372.99V57.3145H208.773V83.7983Z" fill="white"/>
<path d="M208.773 137.054H372.99V110.57H208.773V137.054Z" fill="white"/>
<path d="M223.147 26.7595C228.734 26.7595 233.263 22.2421 233.263 16.6698C233.263 11.0974 228.734 6.58008 223.147 6.58008C217.56 6.58008 213.031 11.0974 213.031 16.6698C213.031 22.2421 217.56 26.7595 223.147 26.7595Z" fill="#1976AD"/>
<path d="M347.175 12.7217H247.336V14.9151H347.175V12.7217Z" fill="#1976AD"/>
<path d="M347.175 18.4248H247.336V20.6182H347.175V18.4248Z" fill="#1976AD"/>
<path d="M223.147 80.7477C228.734 80.7477 233.263 76.2304 233.263 70.658C233.263 65.0857 228.734 60.5684 223.147 60.5684C217.56 60.5684 213.031 65.0857 213.031 70.658C213.031 76.2304 217.56 80.7477 223.147 80.7477Z" fill="#CCCCCC"/>
<path d="M347.175 66.71H247.336V68.9034H347.175V66.71Z" fill="#CCCCCC"/>
<path d="M347.175 72.4131H247.336V74.6065H347.175V72.4131Z" fill="#CCCCCC"/>
<path d="M223.147 134.122C228.734 134.122 233.263 129.604 233.263 124.032C233.263 118.46 228.734 113.942 223.147 113.942C217.56 113.942 213.031 118.46 213.031 124.032C213.031 129.604 217.56 134.122 223.147 134.122Z" fill="#CCCCCC"/>
<path d="M347.175 120.084H247.336V122.277H347.175V120.084Z" fill="#CCCCCC"/>
<path d="M347.175 125.787H247.336V127.981H347.175V125.787Z" fill="#CCCCCC"/>
<path d="M78.6491 97.4376C78.6491 97.4376 76.2841 112.265 86.0822 110.917C86.0822 110.917 124.937 102.156 126.964 104.177C128.991 106.199 141.594 106.888 140.937 98.3633C140.277 89.8101 127.64 94.7417 127.64 94.7417C127.64 94.7417 108.044 97.4376 103.989 95.4156C99.9349 93.3937 88.4473 94.0676 88.4473 94.0676L78.6491 97.4376Z" fill="#A0616A"/>
<path d="M108.3 145.792L102.913 196.778C102.913 196.778 101.223 216.997 96.1552 221.378C96.1552 221.378 96.1552 227.781 94.4658 229.803L92.1007 256.425C92.1007 256.425 95.4794 266.198 95.1416 267.883C94.8037 269.568 96.4931 274.96 96.1552 275.634C95.8173 276.308 79.9375 275.634 79.9375 275.634L83.3162 221.378L93.7901 145.892L108.3 145.792Z" fill="#2F2E41"/>
<path d="M78.6992 272.877C78.6992 272.877 71.6135 290.699 75.3104 292.85C79.0073 295.001 117.825 293.465 117.825 293.465C117.825 293.465 124.294 289.47 116.9 286.705C116.9 286.705 110.739 286.397 106.734 283.939C102.729 281.481 98.108 276.872 98.108 276.872C98.108 276.872 97.7999 270.112 95.3353 271.648C94.5979 272.133 93.9703 272.766 93.4928 273.507C93.0153 274.247 92.6985 275.08 92.5626 275.95L78.6992 272.877Z" fill="#2F2E41"/>
<path d="M67.7787 270.461C67.7787 270.461 60.0077 290.007 64.0621 292.366C68.1165 294.725 110.688 293.04 110.688 293.04C110.688 293.04 117.783 288.659 109.674 285.626C109.674 285.626 102.917 285.289 98.5246 282.593C94.1324 279.897 89.0644 274.842 89.0644 274.842C89.0644 274.842 88.7265 267.428 86.0236 269.113C85.2149 269.645 84.5266 270.339 84.0029 271.152C83.4792 271.964 83.1317 272.877 82.9827 273.831L67.7787 270.461Z" fill="#2F2E41"/>
<path d="M99.1956 145.1C99.1956 145.1 95.4791 179.81 93.7897 187.224C92.7276 192.106 92.0498 197.064 91.7625 202.052C91.7625 202.052 91.4247 212.835 88.3838 215.868C87.4942 216.747 86.7951 217.799 86.3301 218.958C85.8651 220.118 85.6441 221.36 85.6809 222.608C85.6809 222.608 82.6401 256.645 84.3294 260.689C86.0187 264.732 88.3121 269.986 86.6228 272.682C84.9335 275.378 65.7467 273.494 65.7467 271.472C65.7467 269.45 65.7467 267.765 64.7331 266.754C63.7195 265.743 64.7331 259.341 64.7331 259.341C64.7331 259.341 60.6786 229.348 64.3952 220.586C68.1118 211.824 69.8011 187.898 69.8011 187.898C69.8011 187.898 67.0982 160.601 63.7195 156.221C60.3408 151.84 64.3952 136.338 64.3952 136.338L99.1956 145.1Z" fill="#2F2E41"/>
<path d="M89.6875 37.3086C90.0803 38.201 91.0204 38.6979 91.8763 39.1682C96.8369 41.894 100.989 45.846 105.08 49.7524C104.059 46.3021 104.277 42.6047 105.695 39.2971C106.184 38.1689 106.824 36.9562 106.475 35.7777C106.13 34.9353 105.531 34.2207 104.761 33.7331C103.092 32.4455 101.347 31.2582 99.5364 30.1776C98.2713 29.4227 95.6704 27.4131 94.2187 27.6318C94.1425 29.5882 94.1027 31.3373 93.2437 33.1658C93.0399 33.5996 89.8376 37.6498 89.6875 37.3086Z" fill="#A0616A"/>
<path d="M106.97 41.6423C114.62 41.6423 120.822 35.4563 120.822 27.8255C120.822 20.1948 114.62 14.0088 106.97 14.0088C99.3192 14.0088 93.1172 20.1948 93.1172 27.8255C93.1172 35.4563 99.3192 41.6423 106.97 41.6423Z" fill="#A0616A"/>
<path d="M107.643 60.5134C107.643 60.5134 110.008 48.7186 103.251 44.6747C96.4935 40.6308 88.7225 35.9129 88.7225 35.9129C88.7225 35.9129 86.3574 35.5759 85.3438 40.6308C85.3438 40.6308 66.0853 44.3377 64.0581 62.5354C62.0309 80.7331 65.4096 107.356 65.4096 107.356C65.4096 107.356 62.3688 130.608 58.6522 143.077C58.6522 143.077 55.6114 145.773 69.1262 141.729C82.6409 137.685 106.292 153.187 106.292 153.187C106.292 153.187 108.657 150.828 108.657 149.143C108.657 147.458 113.725 96.2347 114.738 91.5168C115.752 86.7989 110.684 61.1874 107.643 60.5134Z" fill="#4E97C2"/>
<path d="M103.707 29.2493C104.54 28.7892 105.473 28.5413 106.424 28.5276C107.377 28.5134 108.307 28.237 109.112 27.7289C110.42 26.7269 110.516 24.7905 111.473 23.4504C112.859 21.5103 115.624 21.2768 118.011 21.3739C119.47 21.4332 121.042 21.5202 122.271 20.7328C123.533 19.9245 124.105 18.4014 124.53 16.9671C125.034 15.2709 125.359 13.1967 124.112 11.9387C123.246 11.0652 121.88 10.8924 120.918 10.1252C120.398 9.71004 113.517 8.0428 107.058 6.5437C103.842 5.79855 100.464 6.25439 97.5626 7.82503C94.6611 9.39566 92.4371 11.9722 91.3112 15.0675C89.8197 19.1581 88.5415 23.0017 88.6734 23.8319C89.3049 27.8052 92.8279 30.9634 93.0706 34.979C93.302 33.8702 93.8057 32.836 94.5366 31.9691C95.2674 31.1023 96.2026 30.43 97.2582 30.0124C97.5229 29.8833 97.8234 29.847 98.1114 29.9092C98.4614 30.0208 98.666 30.3696 98.8869 30.6625C99.4656 31.4299 101.284 32.5942 102.314 32.0498C103.236 31.5626 102.548 30.0335 103.707 29.2493Z" fill="#3F3D56"/>
<path d="M110.04 101.89C109.75 102.174 109.584 102.56 109.578 102.965C109.572 103.37 109.727 103.761 110.009 104.053L119.749 114.109C119.891 114.255 120.06 114.372 120.248 114.452C120.435 114.532 120.636 114.575 120.84 114.577C121.044 114.579 121.246 114.54 121.435 114.463C121.624 114.387 121.796 114.273 121.94 114.13L151.664 84.6113C151.826 84.4501 151.95 84.2546 152.027 84.0393C152.104 83.824 152.132 83.5943 152.108 83.367C152.085 83.1396 152.011 82.9204 151.891 82.7254C151.772 82.5303 151.61 82.3644 151.418 82.2396L139.73 74.6465C139.438 74.4547 139.088 74.3687 138.74 74.4028C138.392 74.437 138.066 74.5894 137.817 74.8344L110.04 101.89Z" fill="#3F3D56"/>
<path d="M151.869 82.6885C151.81 82.7788 151.742 82.8627 151.665 82.9388L122.011 113.015C121.867 113.158 121.695 113.272 121.506 113.349C121.318 113.425 121.115 113.464 120.912 113.462C120.708 113.46 120.506 113.417 120.319 113.337C120.132 113.257 119.962 113.14 119.821 112.994L109.87 102.52C109.802 102.45 109.741 102.373 109.688 102.291C109.522 102.575 109.463 102.909 109.522 103.232C109.581 103.555 109.754 103.846 110.01 104.054L119.751 114.109C119.892 114.255 120.062 114.372 120.249 114.452C120.436 114.533 120.638 114.575 120.842 114.577C121.045 114.579 121.248 114.541 121.436 114.464C121.625 114.387 121.797 114.274 121.941 114.13L151.665 84.6118C151.915 84.3632 152.072 84.0364 152.109 83.6862C152.146 83.336 152.062 82.9837 151.869 82.6885H151.869Z" fill="#6C63FF"/>
<path d="M149.116 83.0526L147.906 82.2834C148.034 82.5098 148.081 82.7727 148.039 83.029C147.998 83.2854 147.87 83.5202 147.678 83.6952C147.486 83.8702 147.24 83.9751 146.98 83.9928C146.72 84.0105 146.462 83.9399 146.248 83.7927L138.42 78.4253C138.242 78.3035 138.102 78.1342 138.016 77.9369C137.93 77.7396 137.901 77.522 137.933 77.3091C137.965 77.0962 138.056 76.8965 138.196 76.7327C138.336 76.5689 138.519 76.4477 138.725 76.3828L138.102 75.9865C138.021 75.9351 137.925 75.9128 137.829 75.9235C137.734 75.9342 137.645 75.9771 137.578 76.0452L111.246 101.855C111.207 101.895 111.176 101.942 111.155 101.994C111.134 102.046 111.124 102.101 111.125 102.157C111.126 102.212 111.138 102.267 111.161 102.318C111.183 102.369 111.216 102.415 111.257 102.454L120.82 111.748C120.899 111.822 121.004 111.863 121.113 111.862C121.222 111.86 121.326 111.816 121.403 111.74L149.187 83.7015C149.231 83.6573 149.265 83.6036 149.286 83.5446C149.307 83.4855 149.314 83.4225 149.307 83.3602C149.301 83.2979 149.28 83.2379 149.247 83.1847C149.214 83.1314 149.169 83.0863 149.116 83.0526Z" fill="white"/>
<path d="M118.723 96.1557L126.801 103.752L146.014 84.8185L136.263 78.4883L118.723 96.1557Z" fill="#E6E6E6"/>
<path d="M145.269 89.4909C145.322 89.5416 145.393 89.5699 145.467 89.5699C145.54 89.5699 145.611 89.5416 145.665 89.4909L147.345 87.8151C147.397 87.7627 147.426 87.6918 147.426 87.6179C147.426 87.544 147.397 87.4731 147.345 87.4208C147.292 87.3701 147.221 87.3418 147.147 87.3418C147.073 87.3418 147.003 87.3701 146.949 87.4208L145.269 89.0966C145.217 89.149 145.188 89.2199 145.188 89.2938C145.188 89.3677 145.217 89.4386 145.269 89.4909Z" fill="#3F3D56"/>
<path d="M142.437 92.3143C142.49 92.3665 142.561 92.3958 142.635 92.3958C142.709 92.3958 142.78 92.3665 142.833 92.3143L144.513 90.6384C144.565 90.5861 144.594 90.5153 144.594 90.4415C144.594 90.3677 144.564 90.2969 144.512 90.2447C144.46 90.1926 144.389 90.1632 144.315 90.1631C144.241 90.163 144.17 90.1921 144.117 90.2441L142.437 91.92C142.385 91.9723 142.355 92.0433 142.355 92.1172C142.355 92.1911 142.385 92.262 142.437 92.3143Z" fill="#3F3D56"/>
<path d="M118.91 104.558C119.953 104.558 120.797 103.715 120.797 102.676C120.797 101.637 119.953 100.794 118.91 100.794C117.868 100.794 117.023 101.637 117.023 102.676C117.023 103.715 117.868 104.558 118.91 104.558Z" fill="#6C63FF"/>
<path d="M68.7898 92.1915C68.7898 92.1915 66.4247 107.019 76.2229 105.671C76.2229 105.671 115.078 96.9094 117.105 98.9314C119.132 100.953 131.735 101.642 131.078 93.1172C130.418 84.564 117.781 89.4956 117.781 89.4956C117.781 89.4956 98.1843 92.1915 94.1299 90.1695C90.0755 88.1476 78.588 88.8215 78.588 88.8215L68.7898 92.1915Z" fill="#A0616A"/>
<path d="M82.6415 45.3496C82.6415 45.3496 67.4375 47.0346 67.4375 68.9392V96.9096L86.0203 89.1588C86.0203 89.1588 93.7912 70.9611 93.1155 65.9062C92.4398 60.8513 92.7776 46.0236 82.6415 45.3496Z" fill="#4E97C2"/>
</g>
<defs>
<clipPath id="clip0_3497_100602">
<rect width="485" height="294" fill="white"/>
</clipPath>
</defs>
</svg>
